<?xml version="1.0" encoding="UTF-8"?>
<svg xmlns="http://www.w3.org/2000/svg" xmlns:xlink="http://www.w3.org/1999/xlink" width="384pt" height="383.999986pt" viewBox="0 0 384 383.999986" version="1.2">
<defs>
<clipPath id="clip1">
  <path d="M 64.226562 62 L 319 62 L 319 296 L 64.226562 296 Z M 64.226562 62 "/>
</clipPath>
<clipPath id="clip2">
  <path d="M 328.242188 150.507812 L 131.988281 305.6875 L 54.398438 207.566406 L 250.652344 52.386719 Z M 328.242188 150.507812 "/>
</clipPath>
<clipPath id="clip3">
  <path d="M 328.242188 150.507812 L 131.988281 305.6875 L 54.398438 207.566406 L 250.652344 52.386719 Z M 328.242188 150.507812 "/>
</clipPath>
<clipPath id="clip4">
  <path d="M 69 67 L 314 67 L 314 291 L 69 291 Z M 69 67 "/>
</clipPath>
<clipPath id="clip5">
  <path d="M 328.242188 150.507812 L 131.988281 305.6875 L 54.398438 207.566406 L 250.652344 52.386719 Z M 328.242188 150.507812 "/>
</clipPath>
<clipPath id="clip6">
  <path d="M 328.242188 150.507812 L 131.988281 305.6875 L 54.398438 207.566406 L 250.652344 52.386719 Z M 328.242188 150.507812 "/>
</clipPath>
<clipPath id="clip7">
  <path d="M 74 179.191406 L 324 179.191406 L 324 304.289062 L 74 304.289062 Z M 74 179.191406 "/>
</clipPath>
</defs>
<g id="surface1">
<g clip-path="url(#clip1)" clip-rule="nonzero">
<g clip-path="url(#clip2)" clip-rule="nonzero">
<g clip-path="url(#clip3)" clip-rule="nonzero">
<path style=" stroke:none;fill-rule:nonzero;fill:rgb(0%,0%,0%);fill-opacity:1;" d="M 238.355469 62.175781 L 240.699219 65.15625 C 244.777344 70.296875 252.246094 71.199219 257.375 67.152344 L 260.34375 64.808594 L 318.441406 138.28125 L 315.476562 140.625 C 310.359375 144.671875 309.5 152.15625 313.5625 157.300781 L 315.917969 160.28125 L 144.394531 295.902344 L 142.039062 292.933594 C 137.976562 287.777344 130.503906 286.890625 125.375 290.9375 L 122.410156 293.28125 L 64.308594 219.792969 L 67.277344 217.453125 C 72.390625 213.402344 73.25 205.933594 69.1875 200.773438 L 66.832031 197.792969 L 238.355469 62.175781 "/>
</g>
</g>
</g>
<g clip-path="url(#clip4)" clip-rule="nonzero">
<g clip-path="url(#clip5)" clip-rule="nonzero">
<g clip-path="url(#clip6)" clip-rule="nonzero">
<path style=" stroke:none;fill-rule:nonzero;fill:rgb(29.798889%,60.778809%,89.408875%);fill-opacity:1;" d="M 267.109375 163.125 L 268.285156 162.179688 L 274.398438 169.917969 L 273.207031 170.84375 Z M 254.882812 147.667969 L 256.074219 146.722656 L 262.171875 154.460938 L 260.996094 155.386719 Z M 242.667969 132.210938 L 243.847656 131.28125 L 249.960938 139.003906 L 248.769531 139.945312 Z M 230.441406 116.753906 L 231.632812 115.824219 L 237.734375 123.546875 L 236.554688 124.488281 Z M 218.226562 101.308594 L 219.40625 100.367188 L 225.519531 108.089844 L 224.328125 109.03125 Z M 209.285156 89.996094 L 210.464844 89.070312 L 213.292969 92.632812 L 212.113281 93.574219 Z M 145.003906 290.59375 L 282.148438 182.15625 L 279.320312 178.582031 L 280.511719 177.636719 L 283.328125 181.214844 L 310.609375 159.644531 C 305.230469 152.851562 306.355469 142.996094 313.117188 137.65625 L 259.734375 70.132812 C 252.96875 75.46875 243.125 74.289062 237.746094 67.5 L 72.140625 198.433594 C 77.519531 205.238281 76.398438 215.082031 69.632812 220.433594 L 123.019531 287.957031 C 129.785156 282.605469 139.625 283.785156 145.003906 290.59375 "/>
</g>
</g>
</g>
<g clip-path="url(#clip7)" clip-rule="nonzero">
<path style=" stroke:none;fill-rule:nonzero;fill:rgb(0%,0%,0%);fill-opacity:1;" d="M 89.652344 304.234375 L 89.652344 300.433594 C 89.652344 293.878906 84.339844 288.539062 77.8125 288.539062 L 74.027344 288.539062 L 74.027344 194.871094 L 77.8125 194.871094 C 84.339844 194.871094 89.652344 189.53125 89.652344 182.960938 L 89.652344 179.164062 L 308.308594 179.164062 L 308.308594 182.960938 C 308.308594 189.53125 313.617188 194.871094 320.148438 194.871094 L 323.933594 194.871094 L 323.933594 288.539062 L 320.148438 288.539062 C 313.617188 288.539062 308.308594 293.878906 308.308594 300.433594 L 308.308594 304.234375 L 89.652344 304.234375 "/>
</g>
<path style=" stroke:none;fill-rule:nonzero;fill:rgb(100%,56.858826%,30.198669%);fill-opacity:1;" d="M 129.699219 207.222656 L 128.1875 207.222656 L 128.1875 197.378906 L 129.699219 197.378906 Z M 129.699219 226.933594 L 128.1875 226.933594 L 128.1875 217.078125 L 129.699219 217.078125 Z M 129.699219 246.632812 L 128.1875 246.632812 L 128.1875 236.777344 L 129.699219 236.777344 Z M 129.699219 266.332031 L 128.1875 266.332031 L 128.1875 256.476562 L 129.699219 256.476562 Z M 129.699219 286.03125 L 128.1875 286.03125 L 128.1875 276.1875 L 129.699219 276.1875 Z M 129.699219 300.433594 L 128.1875 300.433594 L 128.1875 295.886719 L 129.699219 295.886719 Z M 304.539062 182.960938 L 129.699219 182.960938 L 129.699219 187.523438 L 128.1875 187.523438 L 128.1875 182.960938 L 93.421875 182.960938 C 93.421875 191.640625 86.433594 198.667969 77.8125 198.667969 L 77.8125 284.742188 C 86.433594 284.742188 93.421875 291.769531 93.421875 300.449219 L 304.539062 300.449219 C 304.539062 291.769531 311.523438 284.742188 320.148438 284.742188 L 320.148438 198.667969 C 311.523438 198.667969 304.539062 191.640625 304.539062 182.960938 "/>
<path style=" stroke:none;fill-rule:nonzero;fill:rgb(0%,0%,0%);fill-opacity:1;" d="M 158.941406 235.71875 C 160.894531 235.71875 162.433594 236.300781 163.542969 237.4375 C 164.679688 238.589844 165.261719 240.292969 165.261719 242.539062 L 165.261719 251.410156 L 160.769531 251.410156 L 160.769531 243.261719 C 160.769531 242.039062 160.507812 241.140625 159.992188 240.542969 C 159.507812 239.917969 158.800781 239.601562 157.886719 239.601562 C 156.804688 239.601562 155.960938 239.960938 155.335938 240.65625 C 154.738281 241.320312 154.449219 242.316406 154.449219 243.648438 L 154.449219 251.410156 L 149.957031 251.410156 L 149.957031 243.261719 C 149.957031 240.820312 148.972656 239.601562 147.019531 239.601562 C 145.976562 239.601562 145.144531 239.960938 144.523438 240.65625 C 143.925781 241.320312 143.636719 242.316406 143.636719 243.648438 L 143.636719 251.410156 L 139.144531 251.410156 L 139.144531 235.941406 L 143.414062 235.941406 L 143.414062 237.714844 C 143.996094 237.089844 144.703125 236.605469 145.519531 236.273438 C 146.367188 235.914062 147.296875 235.71875 148.292969 235.71875 C 149.402344 235.71875 150.371094 235.941406 151.230469 236.382812 C 152.121094 236.800781 152.839844 237.425781 153.394531 238.269531 C 154.019531 237.464844 154.808594 236.828125 155.777344 236.382812 C 156.734375 235.941406 157.789062 235.71875 158.941406 235.71875 Z M 158.941406 235.71875 "/>
<path style=" stroke:none;fill-rule:nonzero;fill:rgb(0%,0%,0%);fill-opacity:1;" d="M 184.378906 243.757812 C 184.378906 243.800781 184.351562 244.1875 184.324219 244.925781 L 172.625 244.925781 C 172.847656 245.894531 173.34375 246.644531 174.121094 247.199219 C 174.898438 247.753906 175.867188 248.03125 177.058594 248.03125 C 177.835938 248.03125 178.53125 247.917969 179.167969 247.695312 C 179.792969 247.445312 180.386719 247.058594 180.941406 246.53125 L 183.328125 249.136719 C 181.84375 250.800781 179.722656 251.632812 176.949219 251.632812 C 175.175781 251.632812 173.621094 251.300781 172.292969 250.636719 C 170.960938 249.941406 169.921875 249 169.1875 247.808594 C 168.480469 246.585938 168.132812 245.230469 168.132812 243.703125 C 168.132812 242.191406 168.480469 240.820312 169.1875 239.601562 C 169.878906 238.378906 170.863281 237.4375 172.125 236.773438 C 173.371094 236.078125 174.785156 235.71875 176.339844 235.71875 C 177.851562 235.71875 179.222656 236.050781 180.441406 236.71875 C 181.664062 237.355469 182.621094 238.269531 183.328125 239.488281 C 184.019531 240.710938 184.378906 242.136719 184.378906 243.757812 Z M 176.394531 239.101562 C 175.355469 239.101562 174.480469 239.40625 173.789062 239.988281 C 173.125 240.542969 172.707031 241.320312 172.570312 242.316406 L 180.164062 242.316406 C 180.011719 241.359375 179.582031 240.585938 178.890625 239.988281 C 178.226562 239.40625 177.394531 239.101562 176.394531 239.101562 Z M 176.394531 239.101562 "/>
<path style=" stroke:none;fill-rule:nonzero;fill:rgb(0%,0%,0%);fill-opacity:1;" d="M 202.929688 235.941406 L 202.929688 251.410156 L 198.660156 251.410156 L 198.660156 249.582031 C 198.0625 250.246094 197.355469 250.773438 196.554688 251.132812 C 195.734375 251.46875 194.847656 251.632812 193.890625 251.632812 C 191.851562 251.632812 190.246094 251.066406 189.066406 249.914062 C 187.875 248.734375 187.292969 247.003906 187.292969 244.703125 L 187.292969 235.941406 L 191.785156 235.941406 L 191.785156 244.035156 C 191.785156 246.519531 192.808594 247.753906 194.890625 247.753906 C 195.957031 247.753906 196.800781 247.40625 197.441406 246.699219 C 198.105469 246.003906 198.4375 244.964844 198.4375 243.59375 L 198.4375 235.941406 Z M 202.929688 235.941406 "/>
<path style=" stroke:none;fill-rule:nonzero;fill:rgb(0%,0%,0%);fill-opacity:1;" d="M 208.78125 251.632812 C 208.003906 251.632812 207.339844 251.382812 206.785156 250.855469 C 206.257812 250.304688 206.007812 249.625 206.007812 248.804688 C 206.007812 248 206.257812 247.351562 206.785156 246.863281 C 207.339844 246.351562 208.003906 246.089844 208.78125 246.089844 C 209.558594 246.089844 210.195312 246.351562 210.722656 246.863281 C 211.277344 247.351562 211.554688 248 211.554688 248.804688 C 211.554688 249.625 211.277344 250.304688 210.722656 250.855469 C 210.195312 251.382812 209.558594 251.632812 208.78125 251.632812 Z M 208.78125 251.632812 "/>
<path style=" stroke:none;fill-rule:nonzero;fill:rgb(0%,0%,0%);fill-opacity:1;" d="M 223.726562 235.71875 C 225.167969 235.71875 226.472656 236.050781 227.664062 236.71875 C 228.84375 237.382812 229.773438 238.324219 230.4375 239.546875 C 231.101562 240.738281 231.4375 242.125 231.4375 243.703125 C 231.4375 245.296875 231.101562 246.683594 230.4375 247.863281 C 229.773438 249.054688 228.84375 249.96875 227.664062 250.636719 C 226.472656 251.300781 225.167969 251.632812 223.726562 251.632812 C 221.757812 251.632812 220.207031 251.011719 219.070312 249.75 L 219.070312 256.957031 L 214.578125 256.957031 L 214.578125 235.941406 L 218.847656 235.941406 L 218.847656 237.714844 C 219.984375 236.382812 221.621094 235.71875 223.726562 235.71875 Z M 222.953125 247.972656 C 224.089844 247.972656 225.03125 247.585938 225.78125 246.808594 C 226.515625 246.03125 226.886719 245.007812 226.886719 243.703125 C 226.886719 242.375 226.515625 241.320312 225.78125 240.542969 C 225.03125 239.765625 224.089844 239.378906 222.953125 239.378906 C 221.800781 239.378906 220.859375 239.765625 220.125 240.542969 C 219.375 241.320312 219.015625 242.375 219.015625 243.703125 C 219.015625 245.007812 219.375 246.03125 220.125 246.808594 C 220.859375 247.585938 221.800781 247.972656 222.953125 247.972656 Z M 222.953125 247.972656 "/>
<path style=" stroke:none;fill-rule:nonzero;fill:rgb(0%,0%,0%);fill-opacity:1;" d="M 240.644531 235.71875 C 243 235.71875 244.832031 236.300781 246.132812 237.4375 C 247.421875 238.589844 248.074219 240.308594 248.074219 242.59375 L 248.074219 251.410156 L 243.859375 251.410156 L 243.859375 249.472656 C 243 250.914062 241.433594 251.632812 239.144531 251.632812 C 237.953125 251.632812 236.929688 251.425781 236.042969 251.023438 C 235.183594 250.621094 234.515625 250.066406 234.046875 249.359375 C 233.601562 248.667969 233.378906 247.863281 233.378906 246.976562 C 233.378906 245.535156 233.90625 244.410156 234.988281 243.59375 C 236.097656 242.746094 237.773438 242.316406 240.035156 242.316406 L 243.582031 242.316406 C 243.582031 241.359375 243.277344 240.625 242.695312 240.101562 C 242.097656 239.546875 241.210938 239.269531 240.035156 239.269531 C 239.214844 239.269531 238.398438 239.40625 237.59375 239.65625 C 236.816406 239.917969 236.152344 240.265625 235.597656 240.710938 L 233.988281 237.605469 C 234.792969 237.023438 235.792969 236.550781 236.984375 236.21875 C 238.164062 235.886719 239.382812 235.71875 240.644531 235.71875 Z M 240.253906 248.640625 C 241.03125 248.640625 241.710938 248.472656 242.308594 248.140625 C 242.890625 247.78125 243.320312 247.238281 243.582031 246.53125 L 243.582031 244.925781 L 240.53125 244.925781 C 238.675781 244.925781 237.761719 245.535156 237.761719 246.753906 C 237.761719 247.351562 237.980469 247.808594 238.425781 248.140625 C 238.871094 248.472656 239.480469 248.640625 240.253906 248.640625 Z M 240.253906 248.640625 "/>
<path style=" stroke:none;fill-rule:nonzero;fill:rgb(0%,0%,0%);fill-opacity:1;" d="M 257.292969 251.632812 C 255.988281 251.632812 254.742188 251.480469 253.519531 251.191406 C 252.300781 250.855469 251.316406 250.457031 250.582031 249.96875 L 252.078125 246.753906 C 252.773438 247.199219 253.605469 247.570312 254.574219 247.863281 C 255.574219 248.125 256.53125 248.25 257.457031 248.25 C 259.34375 248.25 260.285156 247.792969 260.285156 246.863281 C 260.285156 246.421875 260.023438 246.117188 259.511719 245.921875 C 258.984375 245.699219 258.191406 245.535156 257.125 245.421875 C 255.863281 245.242188 254.824219 245.019531 254.019531 244.757812 C 253.203125 244.507812 252.480469 244.066406 251.859375 243.425781 C 251.261719 242.804688 250.96875 241.902344 250.96875 240.710938 C 250.96875 239.753906 251.246094 238.90625 251.800781 238.160156 C 252.382812 237.382812 253.214844 236.800781 254.296875 236.382812 C 255.363281 235.941406 256.640625 235.71875 258.125 235.71875 C 259.234375 235.71875 260.3125 235.859375 261.394531 236.105469 C 262.460938 236.328125 263.351562 236.660156 264.058594 237.105469 L 262.558594 240.265625 C 261.230469 239.488281 259.746094 239.101562 258.125 239.101562 C 257.152344 239.101562 256.433594 239.253906 255.960938 239.546875 C 255.476562 239.808594 255.238281 240.140625 255.238281 240.542969 C 255.238281 241.027344 255.488281 241.375 256.015625 241.597656 C 256.53125 241.792969 257.359375 241.957031 258.511719 242.097656 C 259.757812 242.316406 260.800781 242.566406 261.617188 242.816406 C 262.421875 243.039062 263.128906 243.46875 263.722656 244.09375 C 264.304688 244.730469 264.613281 245.617188 264.613281 246.753906 C 264.613281 247.683594 264.304688 248.527344 263.722656 249.304688 C 263.167969 250.054688 262.339844 250.621094 261.230469 251.023438 C 260.121094 251.425781 258.804688 251.632812 257.292969 251.632812 Z M 257.292969 251.632812 "/>
<path style=" stroke:none;fill-rule:nonzero;fill:rgb(0%,0%,0%);fill-opacity:1;" d="M 272.53125 251.632812 C 271.226562 251.632812 269.980469 251.480469 268.761719 251.191406 C 267.539062 250.855469 266.554688 250.457031 265.820312 249.96875 L 267.316406 246.753906 C 268.011719 247.199219 268.84375 247.570312 269.8125 247.863281 C 270.8125 248.125 271.769531 248.25 272.695312 248.25 C 274.582031 248.25 275.523438 247.792969 275.523438 246.863281 C 275.523438 246.421875 275.261719 246.117188 274.75 245.921875 C 274.222656 245.699219 273.433594 245.535156 272.363281 245.421875 C 271.101562 245.242188 270.0625 245.019531 269.257812 244.757812 C 268.441406 244.507812 267.71875 244.066406 267.097656 243.425781 C 266.5 242.804688 266.210938 241.902344 266.210938 240.710938 C 266.210938 239.753906 266.488281 238.90625 267.042969 238.160156 C 267.625 237.382812 268.453125 236.800781 269.535156 236.382812 C 270.605469 235.941406 271.878906 235.71875 273.363281 235.71875 C 274.472656 235.71875 275.554688 235.859375 276.632812 236.105469 C 277.703125 236.328125 278.589844 236.660156 279.296875 237.105469 L 277.796875 240.265625 C 276.46875 239.488281 274.984375 239.101562 273.363281 239.101562 C 272.390625 239.101562 271.671875 239.253906 271.199219 239.546875 C 270.714844 239.808594 270.480469 240.140625 270.480469 240.542969 C 270.480469 241.027344 270.730469 241.375 271.253906 241.597656 C 271.769531 241.792969 272.601562 241.957031 273.75 242.097656 C 275 242.316406 276.039062 242.566406 276.855469 242.816406 C 277.660156 243.039062 278.367188 243.46875 278.964844 244.09375 C 279.546875 244.730469 279.851562 245.617188 279.851562 246.753906 C 279.851562 247.683594 279.546875 248.527344 278.964844 249.304688 C 278.410156 250.054688 277.578125 250.621094 276.46875 251.023438 C 275.359375 251.425781 274.042969 251.632812 272.53125 251.632812 Z M 272.53125 251.632812 "/>
<path style=" stroke:none;fill-rule:nonzero;fill:rgb(0%,0%,0%);fill-opacity:1;" d="M 297.691406 243.757812 C 297.691406 243.800781 297.664062 244.1875 297.636719 244.925781 L 285.9375 244.925781 C 286.15625 245.894531 286.65625 246.644531 287.433594 247.199219 C 288.210938 247.753906 289.179688 248.03125 290.371094 248.03125 C 291.148438 248.03125 291.839844 247.917969 292.480469 247.695312 C 293.101562 247.445312 293.699219 247.058594 294.253906 246.53125 L 296.636719 249.136719 C 295.15625 250.800781 293.035156 251.632812 290.261719 251.632812 C 288.488281 251.632812 286.933594 251.300781 285.601562 250.636719 C 284.273438 249.941406 283.234375 249 282.5 247.808594 C 281.792969 246.585938 281.445312 245.230469 281.445312 243.703125 C 281.445312 242.191406 281.792969 240.820312 282.5 239.601562 C 283.191406 238.378906 284.175781 237.4375 285.4375 236.773438 C 286.683594 236.078125 288.097656 235.71875 289.652344 235.71875 C 291.164062 235.71875 292.535156 236.050781 293.753906 236.71875 C 294.976562 237.355469 295.929688 238.269531 296.636719 239.488281 C 297.332031 240.710938 297.691406 242.136719 297.691406 243.757812 Z M 289.707031 239.101562 C 288.667969 239.101562 287.792969 239.40625 287.101562 239.988281 C 286.433594 240.542969 286.019531 241.320312 285.878906 242.316406 L 293.476562 242.316406 C 293.324219 241.359375 292.894531 240.585938 292.203125 239.988281 C 291.535156 239.40625 290.703125 239.101562 289.707031 239.101562 Z M 289.707031 239.101562 "/>
<path style=" stroke:none;fill-rule:nonzero;fill:rgb(100%,56.858826%,30.198669%);fill-opacity:1;" d="M 137.667969 192 L 300.242188 192 L 300.242188 288.625 L 137.667969 288.625 Z M 137.667969 192 "/>
</g>
</svg>
