<svg width="21" height="21" viewBox="0 0 21 21" fill="none" xmlns="http://www.w3.org/2000/svg">
<g clip-path="url(#clip0_14_272)">
<path d="M20.1124 9.76776C19.6235 9.76776 19.2204 10.1237 19.2204 10.6169C19.1775 13.8288 17.325 16.7321 14.4904 18.2887C10.2192 20.6345 5.22751 18.5289 3.3149 15.6728L6.01228 16.2346C6.45827 16.3247 6.94714 16.0545 7.0372 15.5656C7.12725 15.1196 6.85708 14.6308 6.36821 14.5407L1.06351 13.4257C0.754752 13.3528 -0.0557479 13.5758 0.038596 14.4078L0.70758 19.7596C0.750463 20.2056 1.11069 20.5187 1.55667 20.5187C2.22137 20.5187 2.49154 20.0298 2.44865 19.5366L2.1356 16.925C6.47113 22.1268 11.9731 21.4021 15.2923 19.8969C18.7273 18.0657 20.9143 14.545 20.9572 10.6597C20.9615 10.1709 20.6013 9.76776 20.1124 9.76776Z" fill="#333"/>
<path d="M0.883397 11.2301C1.37227 11.2301 1.77537 10.8742 1.77537 10.381C1.81826 7.16902 3.67083 4.2658 6.50543 2.70912C10.7766 0.363392 15.7683 2.46898 17.6809 5.32502L14.9835 4.76325C14.5375 4.67319 14.0487 4.94336 13.9586 5.43223C13.8685 5.87822 14.1387 6.36709 14.6276 6.45715L19.9366 7.57212C20.2453 7.64502 21.0558 7.42203 20.9615 6.59009L20.2925 1.23822C20.2496 0.792228 19.8894 0.479178 19.4434 0.479178C18.7787 0.479178 18.5085 0.968051 18.5514 1.46121L18.8602 4.07282C14.5247 -1.12467 9.0227 -0.404224 5.70351 1.10528C2.26854 2.93212 0.0814737 6.45715 0.0343018 10.3381C0.0343018 10.8313 0.394524 11.2301 0.883397 11.2301Z" fill="#333"/>
</g>
<defs>
<clipPath id="clip0_14_272">
<rect width="21" height="21" fill="white"/>
</clipPath>
</defs>
</svg>
